<svg xmlns="http://www.w3.org/2000/svg" width="760" height="478" viewBox="0 0 760 478" font-family="system-ui,-apple-system,Segoe UI,sans-serif">
<rect width="760" height="478" fill="#fcfcfb" rx="8"/>
<text x="20" y="28" font-size="16" font-weight="600" fill="#0b0b0b">Held-out test split, 512 px (higher is better)</text>
<rect x="20" y="42" width="12" height="12" rx="3" fill="#2a78d6"/>
<text x="38" y="52" font-size="12" fill="#52514e">v8b, this release (500M)</text>
<rect x="220.39999999999998" y="42" width="12" height="12" rx="3" fill="#eb6834"/>
<text x="238.39999999999998" y="52" font-size="12" fill="#52514e">v6 (256M, scalar head)</text>
<rect x="407.59999999999997" y="42" width="12" height="12" rx="3" fill="#1baf7a"/>
<text x="425.59999999999997" y="52" font-size="12" fill="#52514e">untrained 500M, yes/no head</text>
<line x1="220.0" x2="220.0" y1="64" y2="444" stroke="#e1e0d9" stroke-width="1"/>
<text x="220.0" y="460" font-size="11" fill="#898781" text-anchor="middle">0</text>
<line x1="340.0" x2="340.0" y1="64" y2="444" stroke="#e1e0d9" stroke-width="1"/>
<text x="340.0" y="460" font-size="11" fill="#898781" text-anchor="middle">0.25</text>
<line x1="460.0" x2="460.0" y1="64" y2="444" stroke="#e1e0d9" stroke-width="1"/>
<text x="460.0" y="460" font-size="11" fill="#898781" text-anchor="middle">0.5</text>
<line x1="580.0" x2="580.0" y1="64" y2="444" stroke="#e1e0d9" stroke-width="1"/>
<text x="580.0" y="460" font-size="11" fill="#898781" text-anchor="middle">0.75</text>
<line x1="700.0" x2="700.0" y1="64" y2="444" stroke="#e1e0d9" stroke-width="1"/>
<text x="700.0" y="460" font-size="11" fill="#898781" text-anchor="middle">1</text>
<text x="208" y="81" font-size="12.5" fill="#0b0b0b" text-anchor="end">Teacher-written choice</text>
<text x="208" y="96" font-size="11" fill="#898781" text-anchor="end">accuracy</text>
<g><title>Teacher-written choice (accuracy), v8b, this release (500M): 0.784</title><path d="M220.0,70.0 H592.3 A4,4 0 0 1 596.3,74.0 V74.0 A4,4 0 0 1 592.3,78.0 H220.0 Z" fill="#2a78d6"/></g>
<g><title>Teacher-written choice (accuracy), v6 (256M, scalar head): 0.772</title><path d="M220.0,80.0 H586.6 A4,4 0 0 1 590.6,84.0 V84.0 A4,4 0 0 1 586.6,88.0 H220.0 Z" fill="#eb6834"/></g>
<g><title>Teacher-written choice (accuracy), untrained 500M, yes/no head: 0.509</title><path d="M220.0,90.0 H460.3 A4,4 0 0 1 464.3,94.0 V94.0 A4,4 0 0 1 460.3,98.0 H220.0 Z" fill="#1baf7a"/></g>
<text x="602.3" y="78" font-size="11.5" font-weight="600" fill="#0b0b0b">0.78</text>
<text x="208" y="127" font-size="12.5" fill="#0b0b0b" text-anchor="end">Teacher-written yes/no</text>
<text x="208" y="142" font-size="11" fill="#898781" text-anchor="end">balanced accuracy</text>
<g><title>Teacher-written yes/no (balanced accuracy), v8b, this release (500M): 0.938</title><path d="M220.0,116.0 H666.2 A4,4 0 0 1 670.2,120.0 V120.0 A4,4 0 0 1 666.2,124.0 H220.0 Z" fill="#2a78d6"/></g>
<g><title>Teacher-written yes/no (balanced accuracy), v6 (256M, scalar head): 0.866</title><path d="M220.0,126.0 H631.7 A4,4 0 0 1 635.7,130.0 V130.0 A4,4 0 0 1 631.7,134.0 H220.0 Z" fill="#eb6834"/></g>
<g><title>Teacher-written yes/no (balanced accuracy), untrained 500M, yes/no head: 0.653</title><path d="M220.0,136.0 H529.4 A4,4 0 0 1 533.4,140.0 V140.0 A4,4 0 0 1 529.4,144.0 H220.0 Z" fill="#1baf7a"/></g>
<text x="676.2" y="124" font-size="11.5" font-weight="600" fill="#0b0b0b">0.94</text>
<text x="208" y="173" font-size="12.5" fill="#0b0b0b" text-anchor="end">Teacher-written score</text>
<text x="208" y="188" font-size="11" fill="#898781" text-anchor="end">Spearman</text>
<g><title>Teacher-written score (Spearman), v8b, this release (500M): 0.734</title><path d="M220.0,162.0 H568.3 A4,4 0 0 1 572.3,166.0 V166.0 A4,4 0 0 1 568.3,170.0 H220.0 Z" fill="#2a78d6"/></g>
<g><title>Teacher-written score (Spearman), v6 (256M, scalar head): 0.706</title><path d="M220.0,172.0 H554.9 A4,4 0 0 1 558.9,176.0 V176.0 A4,4 0 0 1 554.9,180.0 H220.0 Z" fill="#eb6834"/></g>
<g><title>Teacher-written score (Spearman), untrained 500M, yes/no head: 0.369</title><path d="M220.0,182.0 H393.1 A4,4 0 0 1 397.1,186.0 V186.0 A4,4 0 0 1 393.1,190.0 H220.0 Z" fill="#1baf7a"/></g>
<text x="578.3" y="170" font-size="11.5" font-weight="600" fill="#0b0b0b">0.73</text>
<text x="208" y="219" font-size="12.5" fill="#0b0b0b" text-anchor="end">DocVQA choice</text>
<text x="208" y="234" font-size="11" fill="#898781" text-anchor="end">accuracy</text>
<g><title>DocVQA choice (accuracy), v8b, this release (500M): 0.873</title><path d="M220.0,208.0 H635.0 A4,4 0 0 1 639.0,212.0 V212.0 A4,4 0 0 1 635.0,216.0 H220.0 Z" fill="#2a78d6"/></g>
<g><title>DocVQA choice (accuracy), v6 (256M, scalar head): 0.850</title><path d="M220.0,218.0 H624.0 A4,4 0 0 1 628.0,222.0 V222.0 A4,4 0 0 1 624.0,226.0 H220.0 Z" fill="#eb6834"/></g>
<g><title>DocVQA choice (accuracy), untrained 500M, yes/no head: 0.689</title><path d="M220.0,228.0 H546.7 A4,4 0 0 1 550.7,232.0 V232.0 A4,4 0 0 1 546.7,236.0 H220.0 Z" fill="#1baf7a"/></g>
<text x="645.0" y="216" font-size="11.5" font-weight="600" fill="#0b0b0b">0.87</text>
<text x="208" y="265" font-size="12.5" fill="#0b0b0b" text-anchor="end">AI2D choice</text>
<text x="208" y="280" font-size="11" fill="#898781" text-anchor="end">accuracy</text>
<g><title>AI2D choice (accuracy), v8b, this release (500M): 0.897</title><path d="M220.0,254.0 H646.6 A4,4 0 0 1 650.6,258.0 V258.0 A4,4 0 0 1 646.6,262.0 H220.0 Z" fill="#2a78d6"/></g>
<g><title>AI2D choice (accuracy), v6 (256M, scalar head): 0.787</title><path d="M220.0,264.0 H593.8 A4,4 0 0 1 597.8,268.0 V268.0 A4,4 0 0 1 593.8,272.0 H220.0 Z" fill="#eb6834"/></g>
<g><title>AI2D choice (accuracy), untrained 500M, yes/no head: 0.762</title><path d="M220.0,274.0 H581.8 A4,4 0 0 1 585.8,278.0 V278.0 A4,4 0 0 1 581.8,282.0 H220.0 Z" fill="#1baf7a"/></g>
<text x="656.6" y="262" font-size="11.5" font-weight="600" fill="#0b0b0b">0.90</text>
<text x="208" y="311" font-size="12.5" fill="#0b0b0b" text-anchor="end">CLEVR choice</text>
<text x="208" y="326" font-size="11" fill="#898781" text-anchor="end">accuracy</text>
<g><title>CLEVR choice (accuracy), v8b, this release (500M): 0.803</title><path d="M220.0,300.0 H601.4 A4,4 0 0 1 605.4,304.0 V304.0 A4,4 0 0 1 601.4,308.0 H220.0 Z" fill="#2a78d6"/></g>
<g><title>CLEVR choice (accuracy), v6 (256M, scalar head): 0.736</title><path d="M220.0,310.0 H569.3 A4,4 0 0 1 573.3,314.0 V314.0 A4,4 0 0 1 569.3,318.0 H220.0 Z" fill="#eb6834"/></g>
<g><title>CLEVR choice (accuracy), untrained 500M, yes/no head: 0.481</title><path d="M220.0,320.0 H446.9 A4,4 0 0 1 450.9,324.0 V324.0 A4,4 0 0 1 446.9,328.0 H220.0 Z" fill="#1baf7a"/></g>
<text x="611.4" y="308" font-size="11.5" font-weight="600" fill="#0b0b0b">0.80</text>
<text x="208" y="357" font-size="12.5" fill="#0b0b0b" text-anchor="end">CLEVR counting rubric</text>
<text x="208" y="372" font-size="11" fill="#898781" text-anchor="end">Spearman</text>
<g><title>CLEVR counting rubric (Spearman), v8b, this release (500M): 0.793</title><path d="M220.0,346.0 H596.6 A4,4 0 0 1 600.6,350.0 V350.0 A4,4 0 0 1 596.6,354.0 H220.0 Z" fill="#2a78d6"/></g>
<g><title>CLEVR counting rubric (Spearman), v6 (256M, scalar head): 0.700</title><path d="M220.0,356.0 H552.0 A4,4 0 0 1 556.0,360.0 V360.0 A4,4 0 0 1 552.0,364.0 H220.0 Z" fill="#eb6834"/></g>
<g><title>CLEVR counting rubric (Spearman), untrained 500M, yes/no head: 0.468</title><path d="M220.0,366.0 H440.6 A4,4 0 0 1 444.6,370.0 V370.0 A4,4 0 0 1 440.6,374.0 H220.0 Z" fill="#1baf7a"/></g>
<text x="606.6" y="354" font-size="11.5" font-weight="600" fill="#0b0b0b">0.79</text>
<text x="208" y="403" font-size="12.5" fill="#0b0b0b" text-anchor="end">VQAv2 yes/no</text>
<text x="208" y="418" font-size="11" fill="#898781" text-anchor="end">balanced accuracy</text>
<g><title>VQAv2 yes/no (balanced accuracy), v8b, this release (500M): 0.793</title><path d="M220.0,392.0 H596.6 A4,4 0 0 1 600.6,396.0 V396.0 A4,4 0 0 1 596.6,400.0 H220.0 Z" fill="#2a78d6"/></g>
<g><title>VQAv2 yes/no (balanced accuracy), v6 (256M, scalar head): 0.785</title><path d="M220.0,402.0 H592.8 A4,4 0 0 1 596.8,406.0 V406.0 A4,4 0 0 1 592.8,410.0 H220.0 Z" fill="#eb6834"/></g>
<g><title>VQAv2 yes/no (balanced accuracy), untrained 500M, yes/no head: 0.832</title><path d="M220.0,412.0 H615.4 A4,4 0 0 1 619.4,416.0 V416.0 A4,4 0 0 1 615.4,420.0 H220.0 Z" fill="#1baf7a"/></g>
<text x="606.6" y="400" font-size="11.5" font-weight="600" fill="#0b0b0b">0.79</text>
<line x1="220" x2="220" y1="64" y2="444" stroke="#c3c2b7" stroke-width="1"/>
</svg>